HIERARCHY
ROOT root
{
	OFFSET 0.000000 0.000000 0.000000
	CHANNELS 6 Xposition Yposition Zposition Zrotation Yrotation Xrotation
	JOINT lhip
	{
		OFFSET 0.058581 -0.082280 -0.017664
		CHANNELS 3 Zrotation Yrotation Xrotation
		JOINT lknee
		{
			OFFSET 0.043451 -0.386469 0.008037
			CHANNELS 3 Zrotation Yrotation Xrotation
			JOINT lankle
			{
				OFFSET -0.014790 -0.426874 -0.037428
				CHANNELS 3 Zrotation Yrotation Xrotation
				JOINT ltoe
				{
					OFFSET 0.041054 -0.060286 0.122042
					CHANNELS 3 Zrotation Yrotation Xrotation
					End Site
					{
						OFFSET 0.000000 0.000000 0.000000
					}
				}
			}
		}
	}
	JOINT rhip
	{
		OFFSET -0.060310 -0.090513 -0.013543
		CHANNELS 3 Zrotation Yrotation Xrotation
		JOINT rknee
		{
			OFFSET -0.043257 -0.383688 -0.004843
			CHANNELS 3 Zrotation Yrotation Xrotation
			JOINT rankle
			{
				OFFSET 0.019056 -0.420046 -0.034562
				CHANNELS 3 Zrotation Yrotation Xrotation
				JOINT rtoe
				{
					OFFSET -0.034840 -0.062106 0.130323
					CHANNELS 3 Zrotation Yrotation Xrotation
					End Site
					{
						OFFSET 0.000000 0.000000 0.000000
					}
				}
			}
		}
	}
	JOINT lowerback
	{
		OFFSET 0.004439 0.124404 -0.038385
		CHANNELS 3 Zrotation Yrotation Xrotation
		JOINT upperback
		{
			OFFSET 0.004488 0.137956 0.026820
			CHANNELS 3 Zrotation Yrotation Xrotation
			JOINT chest
			{
				OFFSET -0.002265 0.056032 0.002855
				CHANNELS 3 Zrotation Yrotation Xrotation
				JOINT lowerneck
				{
					OFFSET -0.013390 0.211636 -0.033468
					CHANNELS 3 Zrotation Yrotation Xrotation
					JOINT upperneck
					{
						OFFSET 0.010113 0.088937 0.050410
						CHANNELS 3 Zrotation Yrotation Xrotation
						End Site
						{
							OFFSET 0.000000 0.000000 0.000000
						}
					}
				}
				JOINT lclavicle
				{
					OFFSET 0.071702 0.114000 -0.018898
					CHANNELS 3 Zrotation Yrotation Xrotation
					JOINT lshoulder
					{
						OFFSET 0.122921 0.045205 -0.019046
						CHANNELS 3 Zrotation Yrotation Xrotation
						JOINT lelbow
						{
							OFFSET 0.255332 -0.015649 -0.022946
							CHANNELS 3 Zrotation Yrotation Xrotation
							JOINT lwrist
							{
								OFFSET 0.265709 0.012698 -0.007375
								CHANNELS 3 Zrotation Yrotation Xrotation
								End Site
								{
									OFFSET 0.000000 0.000000 0.000000
								}
							}
						}
					}
				}
				JOINT rclavicle
				{
					OFFSET -0.082954 0.112472 -0.023707
					CHANNELS 3 Zrotation Yrotation Xrotation
					JOINT rshoulder
					{
						OFFSET -0.113228 0.046853 -0.008472
						CHANNELS 3 Zrotation Yrotation Xrotation
						JOINT relbow
						{
							OFFSET -0.260127 -0.014369 -0.031269
							CHANNELS 3 Zrotation Yrotation Xrotation
							JOINT rwrist
							{
								OFFSET -0.269108 0.006794 -0.006027
								CHANNELS 3 Zrotation Yrotation Xrotation
								End Site
								{
									OFFSET 0.000000 0.000000 0.000000
								}
							}
						}
					}
				}
			}
		}
	}
}
MOTION
Frames: 8
Frame Time: 0.033333
0.073805 0.207824 0.881828 72.832768 3.606580 94.776808 16.580590 12.500119 -40.006325 4.999490 31.731889 64.679345 6.119048 15.093861 -30.299062 0.000000 -0.000000 0.000000 -13.193376 -3.252760 -4.857608 -9.292917 0.547178 69.025036 1.471872 -16.226752 -13.333415 0.000000 -0.000000 0.000000 -7.373222 7.548366 17.071601 3.731773 -2.423114 -3.011135 3.450570 4.841799 -3.952038 -3.220472 4.658595 -7.295887 5.057895 -0.583800 12.669918 15.485828 -39.293688 -21.512631 -58.843549 -63.189576 34.547538 165.610286 -69.577340 -136.360865 17.769810 -11.556937 -17.261252 8.544931 38.220626 -0.240056 51.747576 36.998763 21.783345 -12.260842 40.930360 6.394760 6.628143 3.851320 -8.424609 
0.035395 0.203448 0.874719 64.672714 5.526593 95.163718 20.752186 17.135870 -40.104146 6.371969 33.993581 66.008350 5.700018 15.419115 -28.913058 0.000000 -0.000000 0.000000 -19.355383 -5.741875 -0.985753 -6.489469 1.852045 55.997197 3.352471 -10.776185 -13.341055 0.000000 -0.000000 0.000000 -6.826340 9.106258 14.984028 3.735018 -1.964465 -3.167318 4.031115 6.059331 -4.115149 -4.046799 7.081778 -6.993290 5.100599 1.415069 13.661552 18.756066 -38.060680 -22.831552 -56.724772 -63.924498 30.774474 170.172892 -66.337992 -138.711071 21.207631 -9.265616 -15.491617 8.553947 40.221299 2.001779 53.724715 37.966422 23.566932 -7.489772 49.478139 14.681878 7.101518 4.957133 -7.656522 
-0.004984 0.195096 0.871973 56.331076 7.587515 93.989905 25.482821 21.352448 -37.972528 8.235863 34.897206 66.509029 4.766940 15.337501 -26.261321 0.000000 -0.000000 0.000000 -23.039688 -8.167510 0.611799 -4.187398 4.649284 45.452102 6.397696 -1.101154 -12.705444 0.000000 -0.000000 0.000000 -6.118813 10.265339 14.178409 3.883931 -0.903953 -1.881235 4.834610 7.191733 -5.234742 -4.673038 8.616976 -5.779731 5.352392 4.349944 13.439697 16.393471 -33.701314 -20.172519 -56.160984 -57.279322 27.296554 179.105065 -60.516486 -147.057192 16.689141 1.052412 -12.200803 10.322109 38.261041 4.438317 55.218991 35.368571 23.999574 1.922688 65.295443 26.706122 15.276678 4.893776 -5.457153 
-0.046085 0.184248 0.871228 50.325874 8.404010 92.546628 29.241352 22.344303 -35.939576 8.762646 34.668030 65.652307 2.333040 13.768659 -23.501810 0.000000 -0.000000 0.000000 -23.876058 -8.649966 1.440979 -3.677807 5.807311 38.768319 11.000806 4.729294 -11.759136 0.000000 -0.000000 0.000000 -6.079104 10.358655 13.919976 4.522839 -0.184009 0.226960 4.840499 7.144018 -7.010532 -4.065487 9.919263 -4.427766 5.033243 7.873138 13.579747 6.608682 -27.059066 -11.908474 -50.830573 -44.798796 20.725777 -174.039380 -56.335474 -154.147436 15.497931 -3.018242 -13.103256 15.089453 31.695500 8.129036 54.831345 28.146995 23.929740 47.930832 82.560605 72.922590 18.626798 9.063174 -8.815890 
-0.084758 0.170969 0.867400 48.213462 7.922525 91.269680 31.040037 20.711353 -35.790492 5.782402 31.800831 64.229290 -1.588883 11.523157 -21.742096 0.000000 -0.000000 0.000000 -23.533425 -7.473686 4.100449 -3.397481 1.761422 34.637071 13.062546 2.334606 -18.391395 0.000000 -0.000000 0.000000 -5.998017 9.031011 14.478968 5.271042 -0.897341 1.406439 3.990872 5.542141 -8.521312 -2.468007 11.756940 -2.030340 3.734091 12.425802 12.765857 -7.770509 -17.592728 -1.968801 -37.842109 -28.033462 10.731619 -175.562575 -60.899967 -159.397497 18.010115 -21.105566 -31.044464 20.881659 20.987117 9.418723 51.494965 14.544744 23.763203 153.080333 76.263917 173.855364 15.932841 17.548894 -25.542840 
-0.118206 0.157053 0.856901 48.252918 7.077615 89.474850 30.877333 20.770468 -36.896157 0.084171 24.729422 64.296065 -3.840013 9.662452 -20.708803 0.000000 -0.000000 0.000000 -23.989899 -8.885558 8.764283 -2.320818 -1.599173 29.695517 10.069883 -2.139176 -28.130906 0.000000 -0.000000 0.000000 -4.862609 7.448840 16.213255 4.798287 -2.835748 0.369735 3.744497 4.195092 -7.947540 -3.135604 11.651896 1.841904 3.524977 17.907060 8.076516 -16.648686 -9.550673 0.018276 -28.817005 -12.452627 3.131295 -178.729384 -82.805714 -165.246201 17.483988 -11.991591 -26.452014 21.858866 10.087749 8.192681 45.274284 -3.209686 19.943449 168.688204 66.395298 179.073712 4.895956 17.341444 -54.039960 
-0.149340 0.146317 0.842416 47.125989 6.200092 87.622195 30.564265 23.670939 -37.309742 -4.095059 19.124759 65.276923 -4.012133 7.801026 -20.595068 0.000000 -0.000000 0.000000 -25.434015 -11.064964 9.251589 -0.182879 2.273093 30.938766 7.312914 -4.483225 -35.175287 0.000000 -0.000000 0.000000 -2.749227 6.969281 16.854373 3.201002 -4.231893 0.900132 2.883102 3.338474 -6.779529 -5.257569 12.944915 4.239395 4.285144 20.757953 4.337537 -14.076254 -10.994699 -4.327080 -28.795784 -4.792495 -0.797871 -7.096127 -60.919773 26.046127 22.744629 3.770713 11.407740 15.926860 5.908628 8.571316 46.229886 -18.450743 14.745175 173.054958 64.643838 176.129402 -3.541545 3.510334 -73.571949 
-0.174129 0.141007 0.834133 47.364146 6.413793 85.205392 31.415442 24.905110 -36.126034 -7.724684 16.096341 63.469324 -4.459728 5.531340 -21.947263 0.000000 -0.000000 0.000000 -25.064134 -10.500453 7.553685 2.738045 4.302933 38.457541 6.795916 -6.912439 -39.487583 0.000000 -0.000000 0.000000 -0.991191 5.488943 19.100173 2.233152 -4.719853 1.939383 1.938027 2.035456 -5.551842 -5.476431 13.877035 2.470512 4.045252 22.316209 3.061489 -15.090090 -12.263000 -5.644168 -25.203458 -4.014794 -2.403533 -6.146274 -44.635457 23.890824 25.302017 -0.565279 26.783951 14.972219 2.627038 8.128720 40.303148 -24.118514 14.845603 160.046177 64.112046 164.046518 -6.611743 8.117825 -65.307113 
